<svg xmlns="http://www.w3.org/2000/svg" viewBox="0 0 800 500" fill="none"><g stroke-linecap="round" stroke-linejoin="round"><path d="M107 322c133-181 268-178 433-47" stroke="#30C4A0" stroke-width="5"/><path d="m107 322 31-161m402 114 88-139" stroke="#E9E0CF" stroke-opacity=".35" stroke-width="2"/><rect x="100" y="315" width="14" height="14" rx="2" fill="#74263C" stroke="#D18B98" stroke-width="3"/><rect x="131" y="154" width="14" height="14" rx="2" fill="#101312" stroke="#E9E0CF" stroke-width="3"/><rect x="533" y="268" width="14" height="14" rx="2" fill="#74263C" stroke="#D18B98" stroke-width="3"/><rect x="621" y="129" width="14" height="14" rx="2" fill="#101312" stroke="#E9E0CF" stroke-width="3"/><g transform="translate(192 52) rotate(-5)"><path d="M0 12h200v138H0z" fill="#14201C" stroke="#E9E0CF" stroke-opacity=".5" stroke-width="3"/><rect x="19" y="29" width="42" height="42" rx="3" fill="#74263C" fill-opacity=".64" stroke="#D18B98" stroke-width="2"/><rect x="75" y="29" width="42" height="42" rx="3" fill="#30C4A0" fill-opacity=".64" stroke="#30C4A0" stroke-width="2"/><rect x="131" y="29" width="42" height="42" rx="3" fill="#E9E0CF" fill-opacity=".78" stroke="#E9E0CF" stroke-width="2"/><path d="M19 95h161M19 119h109" stroke="#E9E0CF" stroke-opacity=".43" stroke-width="3"/></g><path d="m496 321 108 35-44 23-23 44z" fill="#30C4A0" fill-opacity=".35" stroke="#30C4A0" stroke-width="4"/><path d="m559 379 27 45" stroke="#E9E0CF" stroke-width="4"/><circle cx="691" cy="296" r="40" fill="#74263C" fill-opacity=".45" stroke="#D18B98" stroke-width="3"/><path d="m90 399 43-31 41 37-43 35z" fill="#30C4A0" fill-opacity=".15" stroke="#30C4A0" stroke-width="3"/><path d="M327 388h105v53H327z" stroke="#E9E0CF" stroke-opacity=".5" stroke-width="3"/></g></svg>