<svg xmlns="http://www.w3.org/2000/svg" viewBox="0 0 800 500" fill="none"><g stroke-linecap="round" stroke-linejoin="round"><g transform="translate(99 57) scale(1.88)"><rect x="8" y="10" width="310" height="186" rx="8" fill="#74263C" fill-opacity=".22"/><rect x="0" y="0" width="310" height="186" rx="8" fill="#14201C" stroke="#E9E0CF" stroke-opacity=".5" stroke-width="3"/><path d="M0 37h310" stroke="#D18B98" stroke-opacity=".6" stroke-width="3"/><circle cx="22" cy="20" r="5" fill="#D18B98"/><circle cx="40" cy="20" r="5" fill="#30C4A0"/><circle cx="58" cy="20" r="5" fill="#E9E0CF" fill-opacity=".6"/><path d="m86 70-35 32 35 32m67-64 35 32-35 32m-24-81-25 98" stroke="#30C4A0" stroke-width="5"/><path d="M220 72h60m-60 23h41m-41 23h56m-56 23h33" stroke="#E9E0CF" stroke-opacity=".48" stroke-width="3"/></g><path d="M189 437h427" stroke="#D18B98" stroke-opacity=".6" stroke-width="3" stroke-dasharray="6 10"/><rect x="113" y="407" width="124" height="74" rx="8" fill="#74263C" fill-opacity=".22"/><rect x="105" y="397" width="124" height="74" rx="8" fill="#14201C" stroke="#E9E0CF" stroke-opacity=".5" stroke-width="3"/><path d="M127 421h80m-80 23h48" stroke="#30C4A0" stroke-width="4"/><rect x="346" y="407" width="124" height="74" rx="8" fill="#74263C" fill-opacity=".22"/><rect x="338" y="397" width="124" height="74" rx="8" fill="#14201C" stroke="#E9E0CF" stroke-opacity=".5" stroke-width="3"/><path d="M360 421h80m-80 23h57" stroke="#D18B98" stroke-width="4"/><rect x="579" y="407" width="124" height="74" rx="8" fill="#74263C" fill-opacity=".22"/><rect x="571" y="397" width="124" height="74" rx="8" fill="#14201C" stroke="#E9E0CF" stroke-opacity=".5" stroke-width="3"/><path d="M593 421h80m-80 23h66" stroke="#30C4A0" stroke-width="4"/></g></svg>